<?xml version="1.0" encoding="UTF-8" standalone="no"?>
<!DOCTYPE svg PUBLIC "-//W3C//DTD SVG 1.1//EN"
 "http://www.w3.org/Graphics/SVG/1.1/DTD/svg11.dtd">
<!-- Generated by graphviz version 2.44.1 (20200629.0846)
 -->
<!-- Title: Appointments Pages: 1 -->
<svg width="684pt" height="348pt"
 viewBox="0.00 0.00 684.00 348.00" xmlns="http://www.w3.org/2000/svg" xmlns:xlink="http://www.w3.org/1999/xlink">
<g id="graph0" class="graph" transform="scale(1 1) rotate(0) translate(4 344)">
<title>Appointments</title>
<polygon fill="white" stroke="transparent" points="-4,4 -4,-344 680,-344 680,4 -4,4"/>
<!-- appointments -->
<g id="node1" class="node">
<title>appointments</title>
<polygon fill="none" stroke="black" points="314.5,-173.5 314.5,-339.5 543.5,-339.5 543.5,-173.5 314.5,-173.5"/>
<text text-anchor="middle" x="429" y="-324.3" font-family="Times,serif" font-size="14.00">appointments (110527 rows)</text>
<polyline fill="none" stroke="black" points="314.5,-316.5 543.5,-316.5 "/>
<text text-anchor="start" x="322.5" y="-301.3" font-family="Times,serif" font-size="14.00">appointment_id : index</text>
<text text-anchor="start" x="322.5" y="-286.3" font-family="Times,serif" font-size="14.00">scheduled_time : datetime_time_index</text>
<text text-anchor="start" x="322.5" y="-271.3" font-family="Times,serif" font-size="14.00">appointment_day : datetime</text>
<text text-anchor="start" x="322.5" y="-256.3" font-family="Times,serif" font-size="14.00">neighborhood : id</text>
<text text-anchor="start" x="322.5" y="-241.3" font-family="Times,serif" font-size="14.00">gender : id</text>
<text text-anchor="start" x="322.5" y="-226.3" font-family="Times,serif" font-size="14.00">patient_id : id</text>
<text text-anchor="start" x="322.5" y="-211.3" font-family="Times,serif" font-size="14.00">age : id</text>
<text text-anchor="start" x="322.5" y="-196.3" font-family="Times,serif" font-size="14.00">no_show : boolean</text>
<text text-anchor="start" x="322.5" y="-181.3" font-family="Times,serif" font-size="14.00">sms_received : boolean</text>
</g>
<!-- patients -->
<g id="node2" class="node">
<title>patients</title>
<polygon fill="none" stroke="black" points="0,-0.5 0,-136.5 276,-136.5 276,-0.5 0,-0.5"/>
<text text-anchor="middle" x="138" y="-121.3" font-family="Times,serif" font-size="14.00">patients (62299 rows)</text>
<polyline fill="none" stroke="black" points="0,-113.5 276,-113.5 "/>
<text text-anchor="start" x="8" y="-98.3" font-family="Times,serif" font-size="14.00">patient_id : index</text>
<text text-anchor="start" x="8" y="-83.3" font-family="Times,serif" font-size="14.00">scholarship : boolean</text>
<text text-anchor="start" x="8" y="-68.3" font-family="Times,serif" font-size="14.00">hypertension : boolean</text>
<text text-anchor="start" x="8" y="-53.3" font-family="Times,serif" font-size="14.00">diabetes : boolean</text>
<text text-anchor="start" x="8" y="-38.3" font-family="Times,serif" font-size="14.00">alcoholism : boolean</text>
<text text-anchor="start" x="8" y="-23.3" font-family="Times,serif" font-size="14.00">handicap : boolean</text>
<text text-anchor="start" x="8" y="-8.3" font-family="Times,serif" font-size="14.00">first_appointments_time : datetime_time_index</text>
</g>
<!-- appointments&#45;&gt;patients -->
<g id="edge1" class="edge">
<title>appointments&#45;&gt;patients</title>
<path fill="none" stroke="black" d="M352.17,-173.19C352.17,-142.01 352.17,-114 352.17,-114 352.17,-114 286.06,-114 286.06,-114"/>
<polygon fill="black" stroke="black" points="286.06,-110.5 276.06,-114 286.06,-117.5 286.06,-110.5"/>
<text text-anchor="middle" x="321.21" y="-117.8" font-family="Times,serif" font-size="14.00">patient_id</text>
</g>
<!-- locations -->
<g id="node3" class="node">
<title>locations</title>
<polygon fill="none" stroke="black" points="294.5,-45.5 294.5,-91.5 427.5,-91.5 427.5,-45.5 294.5,-45.5"/>
<text text-anchor="middle" x="361" y="-76.3" font-family="Times,serif" font-size="14.00">locations (81 rows)</text>
<polyline fill="none" stroke="black" points="294.5,-68.5 427.5,-68.5 "/>
<text text-anchor="start" x="302.5" y="-53.3" font-family="Times,serif" font-size="14.00">neighborhood : index</text>
</g>
<!-- appointments&#45;&gt;locations -->
<g id="edge2" class="edge">
<title>appointments&#45;&gt;locations</title>
<path fill="none" stroke="black" d="M389.83,-173.49C389.83,-173.49 389.83,-101.6 389.83,-101.6"/>
<polygon fill="black" stroke="black" points="393.33,-101.6 389.83,-91.6 386.33,-101.6 393.33,-101.6"/>
<text text-anchor="middle" x="351.83" y="-141.35" font-family="Times,serif" font-size="14.00">neighborhood</text>
</g>
<!-- ages -->
<g id="node4" class="node">
<title>ages</title>
<polygon fill="none" stroke="black" points="446,-45.5 446,-91.5 550,-91.5 550,-45.5 446,-45.5"/>
<text text-anchor="middle" x="498" y="-76.3" font-family="Times,serif" font-size="14.00">ages (104 rows)</text>
<polyline fill="none" stroke="black" points="446,-68.5 550,-68.5 "/>
<text text-anchor="start" x="454" y="-53.3" font-family="Times,serif" font-size="14.00">age : index</text>
</g>
<!-- appointments&#45;&gt;ages -->
<g id="edge3" class="edge">
<title>appointments&#45;&gt;ages</title>
<path fill="none" stroke="black" d="M494.75,-173.49C494.75,-173.49 494.75,-101.6 494.75,-101.6"/>
<polygon fill="black" stroke="black" points="498.25,-101.6 494.75,-91.6 491.25,-101.6 498.25,-101.6"/>
<text text-anchor="middle" x="485.25" y="-141.35" font-family="Times,serif" font-size="14.00">age</text>
</g>
<!-- genders -->
<g id="node5" class="node">
<title>genders</title>
<polygon fill="none" stroke="black" points="568,-45.5 568,-91.5 676,-91.5 676,-45.5 568,-45.5"/>
<text text-anchor="middle" x="622" y="-76.3" font-family="Times,serif" font-size="14.00">genders (2 rows)</text>
<polyline fill="none" stroke="black" points="568,-68.5 676,-68.5 "/>
<text text-anchor="start" x="576" y="-53.3" font-family="Times,serif" font-size="14.00">gender : index</text>
</g>
<!-- appointments&#45;&gt;genders -->
<g id="edge4" class="edge">
<title>appointments&#45;&gt;genders</title>
<path fill="none" stroke="black" d="M543.78,-256C585.22,-256 622,-256 622,-256 622,-256 622,-101.87 622,-101.87"/>
<polygon fill="black" stroke="black" points="625.5,-101.87 622,-91.87 618.5,-101.87 625.5,-101.87"/>
<text text-anchor="middle" x="603.5" y="-221.85" font-family="Times,serif" font-size="14.00">gender</text>
</g>
</g>
</svg>
